PathFileType	4	(X/Y/Z)	C:\Users\Alexander Denk\OneDrive - Universitaet Duisburg-Essen\Dokumente\GitHub\artisynth_dissertation_models\src\artisynth\models\gait_model\Models\EP010DR1980_BE_3Gang16\Input\EP010DR1980_BE_3Gang16_positions.trc
DataRate	CameraRate	NumFrames	NumMarkers	Units	OrigDataRate	OrigDataStartFrame	OrigNumFrames
100	100	5	41	m	100	68	110
Frame#	Time	LELB			LSHO			RSHO			LUPA			LBHD			RUPA			RBHD			C7			RWRB			LWRB			RELB			RBAK			LANK			LKNE			LPSI			T10			LBTO			RPSI			RKNE			LTIB			RTIB			LTHI			RBTO			RTOE			RANK			RHEE			RTHI			LHEE			LFRM			LWRA			RFRM			LFIN			RFIN			RFHD			RWRA			RASI			LTOE			STRN			CLAV			LASI			LFHD			
		X1	Y1	Z1	X2	Y2	Z2	X3	Y3	Z3	X4	Y4	Z4	X5	Y5	Z5	X6	Y6	Z6	X7	Y7	Z7	X8	Y8	Z8	X9	Y9	Z9	X10	Y10	Z10	X11	Y11	Z11	X12	Y12	Z12	X13	Y13	Z13	X14	Y14	Z14	X15	Y15	Z15	X16	Y16	Z16	X17	Y17	Z17	X18	Y18	Z18	X19	Y19	Z19	X20	Y20	Z20	X21	Y21	Z21	X22	Y22	Z22	X23	Y23	Z23	X24	Y24	Z24	X25	Y25	Z25	X26	Y26	Z26	X27	Y27	Z27	X28	Y28	Z28	X29	Y29	Z29	X30	Y30	Z30	X31	Y31	Z31	X32	Y32	Z32	X33	Y33	Z33	X34	Y34	Z34	X35	Y35	Z35	X36	Y36	Z36	X37	Y37	Z37	X38	Y38	Z38	X39	Y39	Z39	X40	Y40	Z40	X41	Y41	Z41	X42	Y42	Z42	X43	Y43	Z43	

69	0.68	0.535572143554688	1.18919750976563	-1.13176616605123	0.448388641357422	1.52535827636719	-1.17487615140279	0.0684416275024414	1.50678076171875	-1.19708705838521	0.496693572998047	1.38206591796875	-1.16143483670553	0.329167205810547	1.65833178710938	-1.19569112332662	0.00383303475379944	1.24230407714844	-1.20603557523092	0.178723068237305	1.66162170410156	-1.20012477811178	0.255190902709961	1.55600280761719	-1.24765227444967	0.00500617790222168	0.876596374511719	-1.15704880460103	0.534172180175781	0.915451904296875	-1.08038426907857	-0.0115475597381592	1.14765368652344	-1.19759145291646	0.120034080505371	1.44833630371094	-1.28906804593404	0.377644622802734	0.228251663208008	-1.45091716702779	0.432059844970703	0.511634002685547	-1.10689736111959	0.308397766113281	1.09175500488281	-1.27722328885396	0.285632598876953	1.27443249511719	-1.30969103177389	0.32862158203125	0.0527170677185059	-1.3508538125356	0.240762741088867	1.09003942871094	-1.27404650052389	0.142327835083008	0.509120391845703	-1.07124991544088	0.432157806396484	0.400360137939453	-1.20535777982076	0.14208447265625	0.346242462158203	-1.07753989346822	0.445301818847656	0.662823669433594	-1.10405086453756	0.223306793212891	0.0484731063842773	-0.868997603734334	0.205351333618164	0.0460977668762207	-0.927654338200887	0.206225936889648	0.0641668167114258	-1.08680145963033	0.254028533935547	0.0282901992797852	-1.14282309659322	0.120720115661621	0.670687805175781	-1.07792116483053	0.3405380859375	0.261041168212891	-1.51472985013326	0.522609985351563	0.957080871582031	-1.04517896207174	0.473352233886719	0.926664489746094	-1.03365807278951	-0.00134713125228882	0.929446655273438	-1.13144466336568	0.508526092529297	0.853353088378906	-0.983703681310018	0.00851885414123535	0.79668359375	-1.06562888272603	0.184956069946289	1.73774169921875	-1.06889958890279	0.0514024963378906	0.891667358398437	-1.09635161526998	0.149973602294922	1.06084020996094	-1.09016500027974	0.350906341552734	0.089341178894043	-1.39028658231099	0.272649291992188	1.29380285644531	-1.07245522244771	0.259184326171875	1.42483715820312	-1.09821422513326	0.410308197021484	1.04697985839844	-1.10657694180806	0.312183166503906	1.73418432617188	-1.061196448644
70	0.69	0.5355751953125	1.19092626953125	-1.1343357872963	0.447911895751953	1.52706677246094	-1.17542721796036	0.0678321533203125	1.50908020019531	-1.19623327875137	0.496435089111328	1.38380859375	-1.16322183465958	0.32888427734375	1.66023120117187	-1.19524145746231	0.00304092025756836	1.24453759765625	-1.20355865716934	0.178213500976562	1.66343859863281	-1.19979791498184	0.254479431152344	1.5581396484375	-1.2473441491127	0.00462027025222778	0.878930969238281	-1.15395842218399	0.5341416015625	0.916860900878906	-1.08394319391251	-0.0122825517654419	1.14997094726562	-1.19500097894669	0.118874458312988	1.45073779296875	-1.28854901361465	0.377837615966797	0.225402465820313	-1.43356155633926	0.430941162109375	0.515938781738281	-1.09576568841934	0.306827545166016	1.09380297851562	-1.27847421503067	0.284127777099609	1.27667370605469	-1.31038812494278	0.326296508789063	0.0536941337585449	-1.32727694940567	0.239363647460937	1.09201818847656	-1.27502652215958	0.142931884765625	0.509440979003906	-1.08054213190079	0.431810760498047	0.402452331542969	-1.19049032831192	0.1427919921875	0.346755126953125	-1.0887152428627	0.444224670410156	0.667179870605469	-1.09610359430313	0.223946350097656	0.0474741516113281	-0.882582136631012	0.206051986694336	0.0455341491699219	-0.941218097448349	0.206585372924805	0.0644124526977539	-1.10029632806778	0.254194290161133	0.0284455242156983	-1.15650334405899	0.120981925964355	0.671169250488281	-1.08432661676407	0.341771331787109	0.256029266357422	-1.49942862176895	0.522743896484375	0.958438171386719	-1.04859077692032	0.473488800048828	0.928049865722656	-1.0370112786293	-0.00148798549175262	0.931940979003906	-1.12847972345352	0.508565093994141	0.854647583007813	-0.987275980472565	0.00882161712646484	0.7993994140625	-1.06215488672256	0.184673141479492	1.73967333984375	-1.06864515924454	0.0515532112121582	0.894115844726562	-1.09377478265762	0.14835498046875	1.06226257324219	-1.09131376886368	0.349141632080078	0.089977035522461	-1.36759195184708	0.272247650146484	1.29536389160156	-1.07311671686172	0.258955780029297	1.42646813964844	-1.09838687372208	0.409261993408203	1.05011804199219	-1.10774856805801	0.311956481933594	1.73610217285156	-1.06109566736221
71	0.7	0.5353359375	1.19256591796875	-1.13692246786753	0.447450958251953	1.52869836425781	-1.1760357948939	0.0673129119873047	1.51139172363281	-1.19549018637339	0.496079284667969	1.38549975585938	-1.16516287008921	0.328697784423828	1.66202172851563	-1.19487804953257	0.00225144076347351	1.24685510253906	-1.2010971810023	0.177824234008789	1.66518054199219	-1.19948594443003	0.253802307128906	1.56010119628906	-1.24715412680308	0.00425635957717896	0.881384704589844	-1.15071005026499	0.534172912597656	0.918202941894531	-1.08757571188609	-0.0129657278060913	1.15237902832031	-1.19238728109996	0.117824081420898	1.45301977539063	-1.28812116781871	0.377863128662109	0.220849380493164	-1.41535645834605	0.430238983154297	0.519958129882813	-1.08492188803355	0.305199188232422	1.095697265625	-1.27977555624644	0.282549926757812	1.27874938964844	-1.31104078451792	0.324271697998047	0.0538784713745117	-1.30215571371714	0.237895080566406	1.0939306640625	-1.27599183432261	0.143544906616211	0.509675964355469	-1.08986836020152	0.431316864013672	0.40459130859375	-1.17599430624644	0.143532272338867	0.346853424072266	-1.10011070028941	0.443339447021484	0.671527465820313	-1.08797466818492	0.224436553955078	0.046510066986084	-0.896019399325053	0.206542877197266	0.0449084205627441	-0.95464188114802	0.206875686645508	0.0646740951538086	-1.11363009421031	0.254368087768555	0.0285782070159912	-1.17003851095835	0.121499992370605	0.671524108886719	-1.08975703207652	0.342654693603516	0.248972793579102	-1.48287934652964	0.522926574707031	0.959829406738281	-1.0520963417689	0.473709808349609	0.9294423828125	-1.04044282309214	-0.00162194168567657	0.934524658203125	-1.12539895407359	0.508740905761719	0.855981628417969	-0.990870458285014	0.00913939476013184	0.802195068359375	-1.05857635275523	0.184487487792969	1.7413857421875	-1.0683667046229	0.0517135238647461	0.896576965332031	-1.09102938620249	0.146746627807617	1.06349914550781	-1.09260420004527	0.347418975830078	0.0880077896118164	-1.34428605429331	0.271792083740234	1.29688208007813	-1.07378637472788	0.258697479248047	1.42802795410156	-1.09860688559214	0.408091247558594	1.05282458496094	-1.10901136557261	0.311821960449219	1.73778173828125	-1.06096250693003
72	0.71	0.534958679199219	1.19408349609375	-1.13955255969365	0.4469912109375	1.53018701171875	-1.17673003466924	0.066881462097168	1.51361511230469	-1.19481794055303	0.495944122314453	1.38722412109375	-1.16681827624639	0.328358978271484	1.66350830078125	-1.19498775561651	0.0015242395401001	1.24909924316406	-1.19876790698369	0.177568771362305	1.66682678222656	-1.19921227343877	0.253165557861328	1.56185131835937	-1.24704784472783	0.00392116594314575	0.883859497070313	-1.14730448230108	0.534269775390625	0.919466613769531	-1.09122229846319	-0.0136236743927002	1.15474584960937	-1.18983979113897	0.116859710693359	1.45515466308594	-1.28774904712041	0.377429779052734	0.214864456176758	-1.39625280078252	0.429993316650391	0.523867309570312	-1.07420411761602	0.30375732421875	1.09733837890625	-1.28115062793096	0.280933258056641	1.28061560058594	-1.31170003588994	0.322673553466797	0.0539722404479981	-1.27611547168096	0.236422119140625	1.0955927734375	-1.27685750659307	0.144081893920898	0.509855651855469	-1.0991201561292	0.431122314453125	0.406592346191406	-1.16206629260381	0.144155838012695	0.346917633056641	-1.11183107837041	0.442574310302734	0.675776000976563	-1.08025684436162	0.224966903686523	0.0455329971313477	-0.909488594849904	0.206832061767578	0.0443576583862305	-0.967990445931752	0.207097900390625	0.0648648147583008	-1.12692821582158	0.254605621337891	0.0287129745483399	-1.18355645068487	0.122375602722168	0.6715166015625	-1.09482166369756	0.343091796875	0.240294586181641	-1.46530745776494	0.523170593261719	0.961172973632813	-1.0556424721082	0.473985687255859	0.930773742675781	-1.04390090258916	-0.00174015772342682	0.937093933105469	-1.12221538623174	0.509045928955078	0.857276062011719	-0.994475006898244	0.00949371719360352	0.805001770019531	-1.0548744819959	0.184411315917969	1.74287182617187	-1.06803723986944	0.0518387298583984	0.899160766601563	-1.08808316882451	0.145169677734375	1.06453149414062	-1.0939865043958	0.346119232177734	0.0845891036987305	-1.32018212207158	0.271325439453125	1.29828588867188	-1.07442868884404	0.258417907714844	1.42945422363281	-1.09889743884404	0.406894653320312	1.05520153808594	-1.11017354663213	0.311752685546875	1.73922424316406	-1.0607810142835
73	0.72	0.534594421386719	1.195494140625	-1.14221394729614	0.446536315917969	1.53147265625	-1.17751623916626	0.0665120315551758	1.51568896484375	-1.19418033218384	0.495919250488281	1.38863891601562	-1.16844588088989	0.327949157714844	1.66469592285156	-1.19532403945923	0.000859664976596832	1.25116052246094	-1.19663051223755	0.177450714111328	1.6683369140625	-1.198984790802	0.252653701782227	1.5632958984375	-1.2471148109436	0.00361306619644165	0.8862666015625	-1.14376843643188	0.534404052734375	0.920618591308594	-1.09486651992798	-0.0142963066101074	1.15694970703125	-1.18741734695435	0.115954574584961	1.45712744140625	-1.28739908218384	0.376774993896484	0.207908508300781	-1.37614413833618	0.429964660644531	0.527520202636719	-1.06392272567749	0.302525329589844	1.0987763671875	-1.28251718521118	0.279304901123047	1.28218041992187	-1.31244815444946	0.321993499755859	0.0535702743530274	-1.24812195205688	0.234944320678711	1.09697009277344	-1.27775287246704	0.144647079467773	0.509769226074219	-1.10831145095825	0.430701385498047	0.408499389648438	-1.14874101638794	0.14452522277832	0.347232391357422	-1.12379553604126	0.441886993408203	0.680075744628906	-1.07324502944946	0.225577194213867	0.0445364418029785	-0.923099220275879	0.207062271118164	0.0439874153137207	-0.981354800462723	0.207346771240234	0.0649632873535156	-1.14033876419067	0.254870376586914	0.0288263378143311	-1.19712785720825	0.122690361022949	0.671673400878906	-1.10019529342651	0.343098205566406	0.230173324584961	-1.4466731300354	0.523482666015625	0.962368469238281	-1.05920028305054	0.474299377441406	0.931982971191406	-1.04734495925903	-0.00181971085071564	0.939549072265625	-1.11894026565552	0.509505157470703	0.85845703125	-0.998068593978882	0.00991099071502686	0.807758361816406	-1.05102424240112	0.184478942871094	1.74417041015625	-1.06767586898804	0.0520035209655762	0.901855651855469	-1.08497872543335	0.143643829345703	1.06537963867188	-1.09537855148315	0.345280517578125	0.0824471511840821	-1.2933584022522	0.270887908935547	1.29954235839844	-1.07506226730347	0.258143402099609	1.43073754882813	-1.09923823165894	0.40536865234375	1.0577841796875	-1.11109920120239	0.311800598144531	1.74040905761719	-1.06053171920776
